<svg width="62" height="36" viewBox="0 0 62 36" fill="none" xmlns="http://www.w3.org/2000/svg">
<g id="Frame 27">
<rect width="62" height="36" fill="#666666"/>
<g id="Group 1">
<g id="Mint">
<path d="M7 30.426V20.2671H9.4571L12.2734 25.3969L15.061 20.2671H17.4463V30.426H15.6501V22.5374L12.6183 28.0264H11.8567L8.79612 22.5374V30.426H7Z" fill="white"/>
<path d="M19.4258 30.426V22.8536H21.1788V30.426H19.4258ZM20.3023 21.9771C19.967 21.9771 19.6988 21.8765 19.4977 21.6753C19.2965 21.4741 19.1959 21.2107 19.1959 20.885C19.1959 20.5689 19.3013 20.3103 19.512 20.1091C19.7228 19.8983 19.9862 19.793 20.3023 19.793C20.6089 19.793 20.8723 19.8936 21.0926 20.0947C21.3129 20.2959 21.4231 20.5593 21.4231 20.885C21.4231 21.2107 21.3177 21.4741 21.107 21.6753C20.8962 21.8765 20.628 21.9771 20.3023 21.9771Z" fill="white"/>
<path d="M22.8777 30.426V22.8536H24.5158L24.6164 23.8163C24.8175 23.5481 25.0522 23.3373 25.3205 23.184C25.5887 23.0308 25.8713 22.9206 26.1682 22.8536C26.4652 22.7769 26.743 22.7386 27.0016 22.7386C27.7201 22.7386 28.2853 22.8967 28.6972 23.2128C29.1187 23.5289 29.4156 23.9504 29.5881 24.4773C29.7605 25.0041 29.8467 25.5932 29.8467 26.2446V30.426H28.0937V26.532C28.0937 26.2542 28.0745 25.986 28.0362 25.7274C27.9979 25.4591 27.9212 25.2197 27.8063 25.0089C27.7009 24.7982 27.5477 24.6305 27.3465 24.506C27.1453 24.3815 26.8771 24.3192 26.5418 24.3192C26.1299 24.3192 25.7803 24.4294 25.4929 24.6497C25.2055 24.87 24.99 25.167 24.8463 25.5406C24.7026 25.9046 24.6308 26.3213 24.6308 26.7907V30.426H22.8777Z" fill="white"/>
<path d="M34.7984 30.426C34.1853 30.426 33.6776 30.3446 33.2753 30.1817C32.8825 30.0189 32.5856 29.7555 32.3844 29.3915C32.1928 29.0274 32.097 28.5389 32.097 27.9258V24.4054H30.9331V22.8536H32.097V20.7413H33.85V22.8536H35.6174V24.4054H33.85V27.6959C33.85 28.0791 33.9171 28.3713 34.0512 28.5724C34.1853 28.7736 34.4871 28.8742 34.9564 28.8742H35.5599V30.426H34.7984Z" fill="white"/>
</g>
<g id="Melody">
<path d="M7 15.1589V5H9.4571L12.2734 10.1297L15.061 5H17.4463V15.1589H15.6501V7.2703L12.6183 12.7593H11.8567L8.79612 7.2703V15.1589H7Z" fill="white"/>
<path d="M22.8169 15.2595C22.0314 15.2595 21.3608 15.0966 20.8052 14.7709C20.2592 14.4452 19.8425 13.995 19.5551 13.4202C19.2773 12.8359 19.1384 12.1605 19.1384 11.3942C19.1384 10.6279 19.2821 9.95251 19.5695 9.36817C19.8665 8.77425 20.2879 8.30966 20.834 7.97438C21.3896 7.6391 22.0553 7.47147 22.8313 7.47147C23.406 7.47147 23.9089 7.57684 24.34 7.78758C24.7711 7.98875 25.1303 8.26655 25.4177 8.62099C25.7146 8.97542 25.935 9.37775 26.0786 9.82798C26.2223 10.2782 26.2894 10.7524 26.2798 11.2505C26.2702 11.3655 26.2607 11.4804 26.2511 11.5954C26.2415 11.7007 26.2271 11.8157 26.208 11.9402H20.8914C20.9202 12.2755 21.0064 12.582 21.1501 12.8598C21.3034 13.1376 21.5141 13.358 21.7823 13.5208C22.0601 13.6837 22.405 13.7651 22.8169 13.7651C23.0564 13.7651 23.2863 13.7363 23.5066 13.6789C23.7269 13.6118 23.9185 13.516 24.0814 13.3915C24.2538 13.267 24.3687 13.1089 24.4262 12.9173H26.1792C26.0547 13.4633 25.8248 13.9088 25.4895 14.2536C25.1542 14.5985 24.7519 14.8523 24.2825 15.0152C23.8227 15.178 23.3342 15.2595 22.8169 15.2595ZM20.9202 10.6326H24.5699C24.5699 10.3165 24.4981 10.0291 24.3544 9.7705C24.2107 9.51186 24.0047 9.3107 23.7365 9.16701C23.4779 9.01374 23.1617 8.9371 22.7882 8.9371C22.3858 8.9371 22.0505 9.01853 21.7823 9.18138C21.5141 9.34422 21.3081 9.55497 21.1645 9.81361C21.0208 10.0723 20.9393 10.3453 20.9202 10.6326Z" fill="white"/>
<path d="M27.6768 15.1589V5H29.4298V15.1589H27.6768Z" fill="white"/>
<path d="M34.5916 15.2595C33.8157 15.2595 33.1451 15.1014 32.5799 14.7853C32.0243 14.4692 31.5933 14.0189 31.2867 13.4346C30.9898 12.8503 30.8413 12.1653 30.8413 11.3798C30.8413 10.5847 30.9946 9.89983 31.3011 9.32507C31.6076 8.74073 32.0387 8.28571 32.5943 7.96001C33.1499 7.63431 33.8157 7.47147 34.5916 7.47147C35.358 7.47147 36.0189 7.63431 36.5745 7.96001C37.1301 8.28571 37.5564 8.74552 37.8534 9.33943C38.1503 9.92377 38.2988 10.6135 38.2988 11.4086C38.2988 12.1845 38.1503 12.8646 37.8534 13.449C37.566 14.0237 37.1445 14.4692 36.5889 14.7853C36.0333 15.1014 35.3675 15.2595 34.5916 15.2595ZM34.5772 13.6645C35.0562 13.6645 35.4394 13.5591 35.7268 13.3484C36.0237 13.1376 36.2392 12.8598 36.3734 12.515C36.5075 12.1701 36.5745 11.7965 36.5745 11.3942C36.5745 10.9919 36.5075 10.6135 36.3734 10.259C36.2392 9.90461 36.0237 9.62203 35.7268 9.41128C35.4394 9.19096 35.0562 9.08079 34.5772 9.08079C34.0983 9.08079 33.7103 9.19096 33.4133 9.41128C33.1164 9.62203 32.9009 9.90461 32.7667 10.259C32.6326 10.6039 32.5656 10.9823 32.5656 11.3942C32.5656 11.7965 32.6326 12.1749 32.7667 12.5294C32.9104 12.8742 33.126 13.152 33.4133 13.3628C33.7103 13.5639 34.0983 13.6645 34.5772 13.6645Z" fill="white"/>
<path d="M42.7917 15.2595C42.0253 15.2595 41.3931 15.087 40.895 14.7422C40.3969 14.3877 40.0233 13.9184 39.7742 13.334C39.5347 12.7497 39.415 12.0983 39.415 11.3798C39.415 10.6326 39.5443 9.96688 39.8029 9.38254C40.0616 8.78862 40.4496 8.32403 40.9668 7.98875C41.4841 7.64389 42.1307 7.47147 42.9066 7.47147C43.194 7.47147 43.4718 7.50499 43.74 7.57205C44.0178 7.62953 44.2765 7.72532 44.516 7.85943C44.765 7.98396 44.971 8.1516 45.1338 8.36234V5H46.8869V15.1589H45.1913L45.1626 14.2105C44.9806 14.45 44.765 14.6464 44.516 14.7997C44.2765 14.9529 44.0083 15.0679 43.7113 15.1445C43.4144 15.2211 43.1078 15.2595 42.7917 15.2595ZM43.1222 13.6789C43.582 13.6789 43.9604 13.5735 44.2573 13.3628C44.5543 13.1424 44.7746 12.855 44.9183 12.5006C45.0716 12.1366 45.1482 11.7534 45.1482 11.3511C45.1482 10.9296 45.0716 10.5464 44.9183 10.2016C44.7746 9.85672 44.5543 9.57892 44.2573 9.36817C43.9604 9.15743 43.582 9.05205 43.1222 9.05205C42.6336 9.05205 42.2457 9.16222 41.9583 9.38254C41.6805 9.60287 41.4745 9.89504 41.3404 10.259C41.2159 10.6135 41.1536 10.9967 41.1536 11.4086C41.1536 11.7151 41.1872 12.0073 41.2542 12.2851C41.3308 12.5533 41.4458 12.7928 41.5991 13.0035C41.7523 13.2143 41.9535 13.3819 42.2026 13.5064C42.4516 13.6214 42.7582 13.6789 43.1222 13.6789Z" fill="white"/>
<path d="M51.9327 18.6218C51.3484 18.6218 50.7784 18.5404 50.2228 18.3775C49.6768 18.2243 49.1691 17.9608 48.6997 17.5872L49.3319 16.1791C49.6576 16.4377 50.0217 16.6389 50.424 16.7826C50.8263 16.9358 51.267 17.0125 51.7459 17.0125C52.5027 17.0125 53.0535 16.8209 53.3984 16.4377C53.7528 16.0545 53.93 15.5325 53.93 14.8715V14.3111C53.7576 14.5314 53.5468 14.7134 53.2978 14.8571C53.0487 15.0008 52.7805 15.1062 52.4931 15.1732C52.2057 15.2403 51.9136 15.2738 51.6166 15.2738C50.879 15.2738 50.2899 15.1253 49.8492 14.8284C49.4182 14.5219 49.1068 14.1051 48.9152 13.5783C48.7237 13.0418 48.6279 12.4336 48.6279 11.7534V7.58642H50.3665V11.3655C50.3665 11.6337 50.3857 11.9067 50.424 12.1845C50.4623 12.4623 50.5389 12.7161 50.6539 12.9461C50.7688 13.176 50.9365 13.3628 51.1568 13.5064C51.3867 13.6406 51.6885 13.7076 52.0621 13.7076C52.5506 13.7076 52.929 13.5879 53.1972 13.3484C53.4654 13.1089 53.6474 12.7976 53.7432 12.4144C53.8486 12.0312 53.9013 11.6241 53.9013 11.193V7.58642H55.6543V14.4404C55.6543 15.0822 55.5872 15.657 55.4531 16.1647C55.319 16.682 55.1035 17.1226 54.8065 17.4867C54.5096 17.8507 54.1264 18.1285 53.657 18.3201C53.1876 18.5212 52.6129 18.6218 51.9327 18.6218Z" fill="white"/>
</g>
</g>
</g>
</svg>
