<svg width="32" height="32" viewBox="0 0 32 32" fill="none" xmlns="http://www.w3.org/2000/svg">
<path d="M22.8 3.19922H9.20001C5.8863 3.19922 3.20001 5.88551 3.20001 9.19922V22.7992C3.20001 26.1129 5.8863 28.7992 9.20001 28.7992H22.8C26.1137 28.7992 28.8 26.1129 28.8 22.7992V9.19922C28.8 5.88551 26.1137 3.19922 22.8 3.19922Z" fill="url(#paint0_radial_770_10725)"/>
<path d="M22.8 3.19922H9.20001C5.8863 3.19922 3.20001 5.88551 3.20001 9.19922V22.7992C3.20001 26.1129 5.8863 28.7992 9.20001 28.7992H22.8C26.1137 28.7992 28.8 26.1129 28.8 22.7992V9.19922C28.8 5.88551 26.1137 3.19922 22.8 3.19922Z" fill="url(#paint1_radial_770_10725)"/>
<path d="M16.0009 6C13.2851 6 12.9442 6.0119 11.8776 6.0604C10.813 6.1092 10.0863 6.2777 9.4505 6.525C8.7927 6.7804 8.2348 7.1221 7.679 7.6781C7.1227 8.234 6.781 8.7919 6.5248 9.4494C6.2768 10.0854 6.1081 10.8124 6.0602 11.8765C6.0125 12.9432 6 13.2842 6 16.0001C6 18.716 6.012 19.0558 6.0604 20.1224C6.1094 21.187 6.2779 21.9137 6.525 22.5495C6.7806 23.2073 7.1223 23.7652 7.6783 24.321C8.234 24.8773 8.7919 25.2198 9.4492 25.4752C10.0855 25.7225 10.8123 25.891 11.8767 25.9398C12.9434 25.9883 13.284 26.0002 15.9997 26.0002C18.7158 26.0002 19.0556 25.9883 20.1222 25.9398C21.1868 25.891 21.9143 25.7225 22.5506 25.4752C23.2081 25.2198 23.7652 24.8773 24.3208 24.321C24.8771 23.7652 25.2187 23.2073 25.475 22.5498C25.7208 21.9137 25.8896 21.1868 25.9396 20.1226C25.9875 19.056 26 18.716 26 16.0001C26 13.2842 25.9875 12.9434 25.9396 11.8767C25.8896 10.8121 25.7208 10.0855 25.475 9.4497C25.2187 8.7919 24.8771 8.234 24.3208 7.6781C23.7646 7.1219 23.2083 6.7802 22.55 6.5251C21.9125 6.2777 21.1854 6.1091 20.1208 6.0604C19.0541 6.0119 18.7145 6 15.9978 6H16.0009ZM15.1038 7.8021C15.3701 7.8017 15.6672 7.8021 16.0009 7.8021C18.671 7.8021 18.9874 7.8117 20.0418 7.8596C21.0168 7.9042 21.546 8.0671 21.8985 8.204C22.3652 8.3852 22.6979 8.6019 23.0477 8.952C23.3977 9.302 23.6143 9.6353 23.796 10.102C23.9329 10.454 24.096 10.9832 24.1404 11.9582C24.1883 13.0124 24.1987 13.329 24.1987 15.9978C24.1987 18.6666 24.1883 18.9833 24.1404 20.0374C24.0958 21.0124 23.9329 21.5416 23.796 21.8937C23.6148 22.3604 23.3977 22.6927 23.0477 23.0425C22.6977 23.3925 22.3654 23.6091 21.8985 23.7904C21.5464 23.9279 21.0168 24.0904 20.0418 24.135C18.9876 24.1829 18.671 24.1933 16.0009 24.1933C13.3307 24.1933 13.0142 24.1829 11.9601 24.135C10.9851 24.09 10.4559 23.9271 10.1031 23.7902C9.6365 23.6089 9.3031 23.3923 8.9531 23.0423C8.6031 22.6923 8.3865 22.3598 8.2048 21.8929C8.0679 21.5408 7.9048 21.0116 7.8604 20.0366C7.8125 18.9824 7.8029 18.6658 7.8029 15.9953C7.8029 13.3249 7.8125 13.0099 7.8604 11.9557C7.905 10.9807 8.0679 10.4515 8.2048 10.099C8.3861 9.6323 8.6031 9.299 8.9532 8.949C9.3032 8.599 9.6365 8.3823 10.1032 8.2007C10.4557 8.0632 10.9851 7.9007 11.9601 7.8559C12.8826 7.8142 13.2401 7.8017 15.1038 7.7996V7.8021ZM21.3389 9.4625C20.6764 9.4625 20.1389 9.9995 20.1389 10.6621C20.1389 11.3246 20.6764 11.8621 21.3389 11.8621C22.0014 11.8621 22.5389 11.3246 22.5389 10.6621C22.5389 9.9996 22.0014 9.4621 21.3389 9.4621V9.4625ZM16.0009 10.8646C13.1649 10.8646 10.8655 13.164 10.8655 16.0001C10.8655 18.8362 13.1649 21.1345 16.0009 21.1345C18.837 21.1345 21.1356 18.8362 21.1356 16.0001C21.1356 13.1641 18.8368 10.8646 16.0007 10.8646H16.0009ZM16.0009 12.6667C17.8418 12.6667 19.3343 14.159 19.3343 16.0001C19.3343 17.841 17.8418 19.3335 16.0009 19.3335C14.1599 19.3335 12.6676 17.841 12.6676 16.0001C12.6676 14.159 14.1599 12.6667 16.0009 12.6667Z" fill="white"/>
<defs>
<radialGradient id="paint0_radial_770_10725" cx="0" cy="0" r="1" gradientUnits="userSpaceOnUse" gradientTransform="translate(10 30.7709) rotate(-90) scale(25.3715 23.5975)">
<stop stop-color="#FFDD55"/>
<stop offset="0.1" stop-color="#FFDD55"/>
<stop offset="0.5" stop-color="#FF543E"/>
<stop offset="1" stop-color="#C837AB"/>
</radialGradient>
<radialGradient id="paint1_radial_770_10725" cx="0" cy="0" r="1" gradientUnits="userSpaceOnUse" gradientTransform="translate(-1.08809 5.04332) rotate(78.681) scale(11.3412 46.7488)">
<stop stop-color="#3771C8"/>
<stop offset="0.128" stop-color="#3771C8"/>
<stop offset="1" stop-color="#6600FF" stop-opacity="0"/>
</radialGradient>
</defs>
</svg>
