<svg width="32" height="32" viewBox="0 0 32 32" fill="none" xmlns="http://www.w3.org/2000/svg">
<path d="M23.8667 14.5327C19.6 11.9993 12.4667 11.7327 8.4 12.9993C7.73334 13.1993 7.06667 12.7993 6.86667 12.1993C6.66667 11.5327 7.06667 10.866 7.66667 10.666C12.4 9.26602 20.2 9.53268 25.1333 12.466C25.7333 12.7993 25.9333 13.5993 25.6 14.1993C25.2667 14.666 24.4667 14.866 23.8667 14.5327ZM23.7333 18.266C23.4 18.7327 22.8 18.9327 22.3333 18.5993C18.7333 16.3993 13.2667 15.7327 9.06667 17.066C8.53334 17.1993 7.93334 16.9327 7.8 16.3993C7.66667 15.866 7.93334 15.266 8.46667 15.1327C13.3333 13.666 19.3333 14.3993 23.4667 16.9327C23.8667 17.1327 24.0667 17.7993 23.7333 18.266ZM22.1333 21.9327C21.8667 22.3327 21.4 22.466 21 22.1993C17.8667 20.266 13.9333 19.866 9.26667 20.9327C8.8 21.066 8.4 20.7327 8.26667 20.3327C8.13334 19.866 8.46667 19.466 8.86667 19.3327C13.9333 18.1993 18.3333 18.666 21.8 20.7993C22.2667 20.9993 22.3333 21.5327 22.1333 21.9327ZM16 2.66602C14.249 2.66602 12.5152 3.01089 10.8976 3.68096C9.27988 4.35102 7.81003 5.33314 6.57191 6.57126C4.07143 9.07174 2.66667 12.4631 2.66667 15.9993C2.66667 19.5356 4.07143 22.927 6.57191 25.4274C7.81003 26.6656 9.27988 27.6477 10.8976 28.3177C12.5152 28.9878 14.249 29.3327 16 29.3327C19.5362 29.3327 22.9276 27.9279 25.4281 25.4274C27.9286 22.927 29.3333 19.5356 29.3333 15.9993C29.3333 14.2484 28.9885 12.5146 28.3184 10.8969C27.6483 9.27923 26.6662 7.80937 25.4281 6.57126C24.19 5.33314 22.7201 4.35102 21.1024 3.68096C19.4848 3.01089 17.751 2.66602 16 2.66602Z" fill="#1ED760"/>
</svg>
