<svg width="32" height="32" viewBox="0 0 32 32" fill="none" xmlns="http://www.w3.org/2000/svg">
<path d="M13.3333 19.9993L20.2533 15.9993L13.3333 11.9993V19.9993ZM28.7467 9.55935C28.92 10.186 29.04 11.026 29.12 12.0927C29.2133 13.1593 29.2533 14.0793 29.2533 14.8793L29.3333 15.9993C29.3333 18.9193 29.12 21.066 28.7467 22.4393C28.4133 23.6393 27.64 24.4127 26.44 24.746C25.8133 24.9193 24.6667 25.0393 22.9067 25.1193C21.1733 25.2127 19.5867 25.2527 18.12 25.2527L16 25.3327C10.4133 25.3327 6.93334 25.1193 5.56 24.746C4.36001 24.4127 3.58667 23.6393 3.25334 22.4393C3.08001 21.8127 2.96001 20.9727 2.88001 19.906C2.78667 18.8393 2.74667 17.9193 2.74667 17.1193L2.66667 15.9993C2.66667 13.0793 2.88001 10.9327 3.25334 9.55935C3.58667 8.35935 4.36001 7.58602 5.56 7.25268C6.18667 7.07935 7.33334 6.95935 9.09334 6.87935C10.8267 6.78602 12.4133 6.74602 13.88 6.74602L16 6.66602C21.5867 6.66602 25.0667 6.87935 26.44 7.25268C27.64 7.58602 28.4133 8.35935 28.7467 9.55935Z" fill="#FF0000"/>
</svg>
