<svg width="56" height="56" viewBox="0 0 56 56" fill="none" xmlns="http://www.w3.org/2000/svg">
<path fill-rule="evenodd" clip-rule="evenodd" d="M46.6667 18.666L32.6667 4.66602H14C12.7623 4.66602 11.5753 5.15768 10.7002 6.03285C9.82499 6.90802 9.33333 8.09501 9.33333 9.33268V46.666C9.33333 47.9037 9.82499 49.0907 10.7002 49.9658C11.5753 50.841 12.7623 51.3327 14 51.3327H42C43.2377 51.3327 44.4247 50.841 45.2998 49.9658C46.175 49.0907 46.6667 47.9037 46.6667 46.666V18.666ZM42 20.9993V46.666H14V9.33268H30.3333V20.9993H42ZM26.8333 34.2734V23.3327H32.6667V27.4808H28.7778V37.8512C28.7778 40.1431 27.0375 41.9994 24.8889 41.9994C22.7403 41.9994 21 40.1431 21 37.8512C21 35.5593 22.7403 33.7031 24.8889 33.7031C25.5986 33.7031 26.2597 33.9208 26.8333 34.2734Z" fill="#3D3D3D"/>
</svg>
