<svg width="56" height="56" viewBox="0 0 56 56" fill="none" xmlns="http://www.w3.org/2000/svg">
<g id="Icon/file-video-outline">
<path id="Vector" d="M32.6667 4.66602L46.6667 18.666V46.666C46.6667 47.9037 46.175 49.0907 45.2998 49.9658C44.4247 50.841 43.2377 51.3327 42 51.3327H14C12.7623 51.3327 11.5753 50.841 10.7002 49.9658C9.82499 49.0907 9.33333 47.9037 9.33333 46.666V9.33268C9.33333 8.09501 9.82499 6.90802 10.7002 6.03285C11.5753 5.15768 12.7623 4.66602 14 4.66602H32.6667ZM42 46.666V20.9993H30.3333V9.33268H14V46.666H42ZM37.3333 41.9993L31.5 38.0327V41.9993H18.6667V30.3327H31.5V34.2993L37.3333 30.3327V41.9993Z" fill="#3D3D3D"/>
</g>
</svg>
