<svg width="56" height="56" viewBox="0 0 56 56" fill="none" xmlns="http://www.w3.org/2000/svg">
<g id="Icon/Account-music">
<path id="Vector" d="M25.6667 32.6666C28 32.6666 30.45 33.0399 33.1333 33.6933C31.2433 35.7233 30.3333 38.1033 30.3333 40.8333C30.3333 42.9099 30.9167 44.8699 32.1533 46.6666H7V41.9999C7 39.2233 9.12333 36.9833 13.3933 35.2799C17.6633 33.5533 21.77 32.6666 25.6667 32.6666ZM25.6667 27.9999C23.1467 27.9999 21 27.0899 19.0867 25.2699C17.22 23.4499 16.3333 21.2566 16.3333 18.6666C16.3333 16.1466 17.22 13.9999 19.0867 12.0866C21 10.2199 23.1467 9.33325 25.6667 9.33325C28.2567 9.33325 30.45 10.2199 32.27 12.0866C34.09 13.9999 35 16.1466 35 18.6666C35 21.2566 34.09 23.4499 32.27 25.2699C30.45 27.0899 28.2567 27.9999 25.6667 27.9999ZM43.1667 23.3333H46.6667H51.3333V27.9999H46.6667V40.8333C46.6667 42.3804 46.0521 43.8641 44.9581 44.958C43.8642 46.052 42.3804 46.6666 40.8333 46.6666C39.2862 46.6666 37.8025 46.052 36.7085 44.958C35.6146 43.8641 35 42.3804 35 40.8333C35 39.2862 35.6146 37.8024 36.7085 36.7085C37.8025 35.6145 39.2862 34.9999 40.8333 34.9999C41.6733 34.9999 42.4433 35.1633 43.1667 35.4899V23.3333Z" fill="#3D3D3D"/>
</g>
</svg>
