<svg width="56" height="56" viewBox="0 0 56 56" fill="none" xmlns="http://www.w3.org/2000/svg">
<path d="M51.3333 44.3334V46.6667L32.6667 52.5001L16.3333 47.9734V51.3334H2.33333V25.6667H20.93L35.3033 31.0334C36.5841 31.5165 37.6875 32.378 38.4669 33.5033C39.2463 34.6287 39.6648 35.9645 39.6667 37.3334H44.3333C48.2067 37.3334 51.3333 40.4601 51.3333 44.3334ZM11.6667 46.6667V30.3334H7V46.6667H11.6667ZM46.4333 43.3301C46.06 42.5601 45.2433 42.0001 44.3333 42.0001H31.85C30.59 42.0001 29.3533 41.8134 28.1633 41.4167L22.61 39.5734L24.08 35.1401L29.6333 36.9834C30.3333 37.2167 35 37.3334 35 37.3334C35 36.4701 34.4633 35.7001 33.67 35.3967L20.09 30.3334H16.3333V43.1667L32.5967 47.6234L46.4333 43.3301Z" fill="#3D3D3D"/>
<path d="M40.8333 4.66675L32.6667 19.0082L40.8333 24.1302L49 19.0082L40.8333 4.66675ZM32.6667 20.7155L40.8333 32.6667L49 20.7155L40.8333 25.8375L32.6667 20.7155Z" fill="#3D3D3D"/>
</svg>
